<svg width="100" height="100" viewBox="0 0 100 100" fill="none" xmlns="http://www.w3.org/2000/svg">
<path d="M41.762 27.26V35.554C41.762 36.125 42.067 36.654 42.562 36.939L62.774 48.608C63.84 49.224 63.84 50.763 62.774 51.379L42.562 63.048C42.067 63.334 41.762 63.862 41.762 64.433V72.727C41.762 73.958 43.095 74.728 44.161 74.112L83.536 51.379C84.602 50.763 84.602 49.224 83.536 48.608L44.161 25.875C43.095 25.259 41.762 26.029 41.762 27.26Z" fill="#fff"/>
<path d="M83.537 48.608L44.161 25.875C43.968 25.763 43.766 25.711 43.564 25.685L81.536 47.608C82.602 48.224 82.602 49.763 81.536 50.379L42.161 73.112C42.061 73.17 41.956 73.204 41.853 73.238C42.161 74.152 43.254 74.636 44.161 74.112L83.536 51.379C84.603 50.763 84.603 49.224 83.537 48.608Z" fill="#fff"/>
<path d="M41.762 27.26V35.554C41.762 36.125 42.067 36.654 42.562 36.939L62.774 48.608C63.84 49.224 63.84 50.763 62.774 51.379L42.562 63.048C42.067 63.334 41.762 63.862 41.762 64.433V72.727C41.762 73.958 43.095 74.728 44.161 74.112L83.536 51.379C84.602 50.763 84.602 49.224 83.536 48.608L44.161 25.875C43.095 25.259 41.762 26.029 41.762 27.26Z" stroke="#fff" stroke-miterlimit="10"/>
<path d="M14.664 27.273V35.567C14.664 36.138 14.969 36.667 15.464 36.952L35.676 48.621C36.742 49.237 36.742 50.776 35.676 51.392L15.464 63.061C14.969 63.347 14.664 63.875 14.664 64.446V72.74C14.664 73.971 15.997 74.741 17.063 74.125L56.438 51.392C57.504 50.776 57.504 49.237 56.438 48.621L17.063 25.888C15.997 25.272 14.664 26.042 14.664 27.273Z" fill="#fff"/>
<path d="M56.438 48.621L17.063 25.888C16.87 25.776 16.668 25.724 16.466 25.698L54.438 47.621C55.504 48.237 55.504 49.776 54.438 50.392L15.063 73.125C14.963 73.183 14.858 73.217 14.755 73.251C15.063 74.165 16.156 74.649 17.063 74.125L56.438 51.392C57.505 50.776 57.505 49.237 56.438 48.621Z" fill="#fff"/>
<path d="M14.664 27.273V35.567C14.664 36.138 14.969 36.667 15.464 36.952L35.676 48.621C36.742 49.237 36.742 50.776 35.676 51.392L15.464 63.061C14.969 63.347 14.664 63.875 14.664 64.446V72.74C14.664 73.971 15.997 74.741 17.063 74.125L56.438 51.392C57.504 50.776 57.504 49.237 56.438 48.621L17.063 25.888C15.997 25.272 14.664 26.042 14.664 27.273Z" stroke="#fff" stroke-miterlimit="10"/>
</svg>
